<?xml version="1.0" encoding="UTF-8"?>
<svg width="265px" height="163px" viewBox="0 0 265 163" version="1.1" xmlns="http://www.w3.org/2000/svg" xmlns:xlink="http://www.w3.org/1999/xlink">
    <title>A/assets/brand/logo/signe</title>
    <g id="A/assets/brand/logo/signe" stroke="none" stroke-width="1" fill="none" fill-rule="evenodd">
        <g id="schluter_web_RGB_mobile" transform="translate(22.000000, 21.000000)" fill-rule="nonzero">
            <polygon id="Path" fill="#F78D1F" points="169.377 63.413 169.377 106.949 2.764 106.949 2.764 119.678 218.92 119.678 218.92 63.413"></polygon>
            <path d="M219.61435,62.71865 L168.68265,62.71865 L168.682,106.254 L2.06965,106.25465 L2.06965,120.37235 L219.61435,120.37235 L219.61435,62.71865 Z M218.225,64.107 L218.225,118.983 L3.458,118.983 L3.458,107.643 L170.07135,107.64335 L170.071,64.107 L218.225,64.107 Z" id="Path" fill="#1D1D1B"></path>
            <path d="M151.927,37.098 L151.927,50.087 C151.927,51.31 152.073,52.224 152.364,52.847 C152.876,53.937 153.899,54.497 155.401,54.497 C157.341,54.497 158.66,53.716 159.39,52.161 C159.751,51.313 159.94,50.2 159.94,48.817 L159.94,37.098 L165.687,37.098 L165.687,58.638 L160.178,58.638 L160.178,55.595 C160.128,55.659 159.992,55.866 159.785,56.189 C159.574,56.525 159.32,56.806 159.026,57.058 C158.142,57.851 157.274,58.392 156.442,58.675 C155.617,58.97 154.65,59.114 153.537,59.114 C150.323,59.114 148.164,57.971 147.048,55.675 C146.421,54.421 146.116,52.556 146.116,50.087 L146.116,37.098 L151.927,37.098 L151.927,37.098 Z" id="Path" fill="#1D1D1B"></path>
            <path d="M189.872,42.402 C189.151,43.217 188.709,44.309 188.519,45.716 L197.328,45.716 C197.242,44.228 196.777,43.107 195.96,42.335 C195.148,41.558 194.142,41.167 192.934,41.167 C191.626,41.168 190.605,41.589 189.872,42.402 L189.872,42.402 Z M197.804,37.529 C199.256,38.202 200.449,39.268 201.392,40.717 C202.245,41.991 202.792,43.474 203.039,45.158 C203.189,46.147 203.254,47.574 203.227,49.424 L188.379,49.424 C188.458,51.596 189.145,53.11 190.423,53.975 C191.205,54.5219978 192.152,54.787 193.253,54.787 C194.414,54.787 195.37,54.451 196.097,53.799 C196.5,53.445 196.85,52.953 197.154,52.307 L202.947,52.307 C202.795,53.596 202.131,54.897 200.933,56.215 C199.079,58.303 196.477,59.35 193.134,59.35 C190.376,59.35 187.945,58.469 185.835,56.7 C183.724,54.932 182.673,52.067 182.673,48.085 C182.673,44.361 183.623,41.5 185.517,39.511 C187.425,37.518 189.901,36.5219978 192.934,36.5219978 C194.734,36.521 196.363,36.862 197.804,37.529 L197.804,37.529 Z" id="Shape" fill="#1D1D1B"></path>
            <path d="M6.114,83.137 C6.302,84.467 6.667,85.467 7.209,86.121 C8.209,87.328 9.91,87.922 12.319,87.922 C13.77,87.922 14.941,87.764 15.841,87.443 C17.553,86.839 18.405,85.714 18.405,84.068 C18.405,83.107 17.985,82.359 17.136,81.836 C16.288,81.318 14.954,80.863 13.135,80.475 L10.036,79.78 C6.982,79.094 4.877,78.358 3.708,77.544 C1.728,76.194 0.742,74.097 0.742,71.239 C0.742,68.632 1.699,66.462 3.607,64.736 C5.517,63.017 8.323,62.15 12.024,62.15 C15.116,62.15 17.75,62.972 19.918,64.605 C22.107,66.226 23.255,68.579 23.362,71.681 L17.48,71.681 C17.369,69.925 16.599,68.685 15.169,67.943 C14.214,67.455 13.025,67.205 11.6,67.205 C10.027,67.205 8.771,67.527 7.831,68.162 C6.884,68.793 6.413,69.672 6.413,70.803 C6.413,71.84 6.877,72.623 7.809,73.139 C8.399,73.479 9.676,73.883 11.625,74.342 L16.679,75.551 C18.894,76.072 20.564,76.78 21.691,77.664 C23.441,79.037 24.318,81.019 24.318,83.613 C24.318,86.277 23.292,88.494 21.234,90.261 C19.186,92.007 16.3,92.884 12.561,92.884 C8.741,92.884 5.739,92.03 3.553,90.292 C1.361,88.552 0.266,86.171 0.266,83.138 L6.114,83.138 L6.114,83.137 Z" id="Path" fill="#1D1D1B"></path>
            <path d="M28.453,96.264 L29.177,96.305 C29.733,96.326 30.259,96.309 30.767,96.243 C31.267,96.179 31.696,96.026 32.04,95.784 C32.369,95.565 32.675,95.095 32.952,94.382 C33.248,93.669 33.363,93.241 33.313,93.081 L25.356,70.587 L31.665,70.587 L36.395,86.482 L40.873,70.587 L46.901,70.587 L39.457,91.78 C38.029,95.866 36.894,98.391 36.059,99.362 C35.22,100.342 33.547,100.848 31.049,100.848 C30.542,100.848 30.133,100.834 29.833,100.827 C29.526,100.827 29.064,100.806 28.454,100.768 L28.454,96.264 L28.453,96.264 Z" id="Path" fill="#1D1D1B"></path>
            <path d="M53.849,85.252 C53.96,86.254 54.224,86.963 54.625,87.391 C55.32,88.143 56.622,88.52 58.521,88.52 C59.636,88.52 60.513,88.35 61.167,88.02 C61.831,87.692 62.158,87.202 62.158,86.54 C62.158,85.909 61.893,85.421 61.363,85.099 C60.833,84.765 58.864,84.197 55.456,83.394 C52.999,82.787 51.273,82.031 50.262,81.128 C49.258,80.228 48.755,78.935 48.755,77.253 C48.755,75.263 49.531,73.554 51.1,72.134 C52.674,70.7 54.897,69.974 57.741,69.974 C60.451,69.974 62.649,70.519 64.347,71.595 C66.063,72.656 67.041,74.521 67.292,77.152 L61.623,77.152 C61.544,76.429 61.339,75.855 61.006,75.435 C60.381,74.667 59.322,74.285 57.821,74.285 C56.593,74.285 55.711,74.473 55.182,74.863 C54.665,75.248 54.399,75.687 54.399,76.195 C54.399,76.851 54.677,77.318 55.235,77.609 C55.792,77.908 57.764,78.429 61.149,79.171 C63.401,79.696 65.089,80.489 66.219,81.56 C67.333,82.638 67.897,83.986 67.897,85.615 C67.897,87.748 67.086,89.498 65.487,90.847 C63.892,92.189 61.425,92.863 58.084,92.863 C54.676,92.863 52.154,92.156 50.526,90.728 C48.904,89.292 48.097,87.47 48.097,85.253 L53.849,85.253 L53.849,85.252 Z" id="Path" fill="#1D1D1B"></path>
            <path d="M69.046,74.797 L69.046,70.783 L72.068,70.783 L72.068,64.782 L77.679,64.782 L77.679,70.783 L81.208,70.783 L81.208,74.797 L77.68,74.797 L77.68,86.18 C77.68,87.069 77.793,87.616 78.021,87.844 C78.246,88.057 78.93,88.156 80.085,88.156 C80.255,88.156 80.439,88.156 80.618,88.156 C80.82,88.146 81.016,88.135 81.209,88.121 L81.209,92.326 L78.512,92.43 C75.836,92.522 74.01,92.055 73.027,91.047 C72.39,90.404 72.069,89.402 72.069,88.067 L72.069,74.797 L69.046,74.797 L69.046,74.797 Z" id="Path" fill="#1D1D1B"></path>
            <path d="M89.515,75.887 C88.798,76.696 88.349,77.805 88.173,79.201 L96.979,79.201 C96.888,77.721 96.434,76.588 95.6,75.824 C94.804,75.054 93.789,74.662 92.578,74.656 C91.263,74.656 90.24,75.064 89.515,75.887 L89.515,75.887 Z M97.448,71.023 C98.898,71.691 100.102,72.757 101.031,74.207 C101.885,75.484 102.435,76.965 102.688,78.643 C102.83,79.645 102.891,81.065 102.87,82.922 L88.026,82.922 C88.106,85.08 88.781,86.594 90.072,87.465 C90.852,88.008 91.798,88.279 92.898,88.279 C94.058,88.279 95.019,87.945 95.745,87.289 C96.143,86.93 96.497,86.437 96.8,85.814 L102.587,85.814 C102.442,87.084 101.775,88.386 100.578,89.703 C98.721,91.797 96.122,92.84 92.781,92.84 C90.021,92.84 87.59,91.959 85.478,90.194 C83.371,88.43 82.315,85.555 82.315,81.573 C82.315,77.846 83.261,74.993 85.159,72.999 C87.066,71.007 89.547,70.0169978 92.577,70.0169978 C94.393,70.016 96.007,70.352 97.448,71.023 L97.448,71.023 Z" id="Shape" fill="#1D1D1B"></path>
            <path d="M132.924,70.67 C133.862,71.029 134.69,71.682 135.463,72.602 C136.063,73.354 136.471,74.274 136.689,75.372 C136.821,76.102 136.89,77.153 136.89,78.554 L136.846,92.13 L131.043,92.13 L131.043,78.412 C131.043,77.603 130.901,76.926 130.643,76.398 C130.138,75.396 129.208,74.9 127.857,74.896 C126.288,74.896 125.213,75.548 124.607,76.839 C124.304,77.521 124.153,78.337 124.153,79.3 L124.153,92.128 L118.447,92.128 L118.447,79.301 C118.447,78.028 118.319,77.098 118.049,76.522 C117.572,75.485 116.635,74.954 115.244,74.954 C113.627,74.954 112.532,75.485 111.982,76.522 C111.673,77.112 111.527,77.991 111.527,79.17 L111.527,92.129 L105.77,92.129 L105.77,70.623 L111.277,70.623 L111.277,73.773 C111.992,72.648 112.642,71.853 113.272,71.378 C114.368,70.528 115.792,70.11 117.55,70.11 C119.206,70.11 120.553,70.479 121.563,71.196 C122.392,71.868 123.009,72.737 123.438,73.79 C124.184,72.522 125.107,71.593 126.204,71.003 C127.376,70.405 128.674,70.11 130.105,70.11 C131.057,70.111 132,70.299 132.924,70.67 L132.924,70.67 Z" id="Path" fill="#1D1D1B"></path>
            <path d="M145.709,85.252 C145.823,86.254 146.084,86.963 146.47,87.391 C147.18,88.143 148.486,88.52 150.375,88.52 C151.49,88.52 152.374,88.35 153.025,88.02 C153.683,87.692 154.021,87.202 154.021,86.54 C154.021,85.909 153.753,85.421 153.22,85.099 C152.695,84.765 150.721,84.197 147.319,83.394 C144.855,82.787 143.128,82.031 142.122,81.128 C141.106,80.228 140.608,78.935 140.608,77.253 C140.608,75.263 141.394,73.554 142.953,72.134 C144.536,70.7 146.749,69.974 149.599,69.974 C152.306,69.974 154.512,70.519 156.21,71.595 C157.917,72.656 158.896,74.521 159.156,77.152 L153.475,77.152 C153.4,76.429 153.193,75.855 152.861,75.435 C152.24,74.667 151.177,74.285 149.681,74.285 C148.453,74.285 147.57,74.473 147.033,74.863 C146.515,75.248 146.259,75.687 146.259,76.195 C146.259,76.851 146.537,77.318 147.093,77.609 C147.658,77.908 149.619,78.429 153.003,79.171 C155.253,79.696 156.948,80.489 158.067,81.56 C159.193,82.638 159.747,83.986 159.747,85.615 C159.747,87.748 158.935,89.498 157.341,90.847 C155.752,92.189 153.281,92.863 149.94,92.863 C146.532,92.863 144.012,92.156 142.383,90.728 C140.762,89.292 139.948,87.47 139.948,85.253 L145.709,85.253 L145.709,85.252 Z" id="Path" fill="#1D1D1B"></path>
            <path d="M213.68,32.046 C217.646,32.046 220.862,28.837 220.862,24.881 C220.862,20.954 217.646,17.746 213.68,17.746 C209.686,17.746 206.461,20.954 206.461,24.881 C206.461,28.837 209.686,32.046 213.68,32.046 L213.68,32.046 Z M213.68,31.103 C210.171,31.103 207.61,28.382 207.61,24.881 C207.61,21.4 210.172,18.685 213.68,18.685 C217.174,18.685 219.721,21.4 219.721,24.881 C219.721,28.382 217.174,31.103 213.68,31.103 L213.68,31.103 Z M214.833,25.191 C216.269,25.162 217.361,24.573 217.361,23.012 C217.361,21.687 216.648,20.894 214.505,20.894 L210.999,20.894 L210.999,28.876 L211.989,28.876 L211.989,25.19 L213.795,25.19 L216.086,28.876 L217.267,28.876 L214.833,25.191 L214.833,25.191 Z M211.989,24.422 L211.989,21.593 L214.283,21.593 C215.275,21.593 216.304,21.739 216.304,22.988 C216.304,24.618 214.624,24.423 213.492,24.423 L211.989,24.423 L211.989,24.422 Z" id="Shape" fill="#1D1D1B"></path>
            <polygon id="Path" fill="#B1B1B1" points="51.132 57.651 51.132 14.13 218.92 14.13 218.92 1.391 2.684 1.391 2.684 57.651"></polygon>
            <path d="M219.61435,0.69665 L1.98965,0.69665 L1.98965,58.34535 L51.82635,58.34535 L51.826,14.824 L219.61435,14.82435 L219.61435,0.69665 Z M218.225,2.085 L218.225,13.435 L50.43765,13.43565 L50.437,56.956 L3.378,56.956 L3.378,2.085 L218.225,2.085 Z" id="Path" fill="#1D1D1B"></path>
            <path d="M67.931,49.643 C68.114,50.975 68.48,51.975 69.021,52.629 C70.019,53.836 71.718,54.43 74.133,54.43 C75.582,54.43 76.756,54.276 77.658,53.955 C79.37,53.351 80.223,52.215 80.223,50.578 C80.223,49.621 79.802,48.875 78.952,48.344 C78.101,47.832 76.77,47.371 74.953,46.981 L71.846,46.294 C68.795,45.597 66.69,44.853 65.519,44.059 C63.543,42.711 62.56,40.609 62.56,37.751 C62.56,35.138 63.517,32.972 65.425,31.244 C67.334,29.525 70.137,28.659 73.832,28.659 C76.925,28.659 79.564,29.471 81.74,31.111 C83.928,32.74 85.075,35.084 85.175,38.185 L79.285,38.185 C79.182,36.431 78.409,35.188 76.977,34.45 C76.032,33.96 74.84,33.719 73.416,33.719 C71.838,33.719 70.585,34.031 69.647,34.669 C68.695,35.293 68.225,36.177 68.225,37.315 C68.225,38.357 68.692,39.135 69.621,39.652 C70.217,39.987 71.494,40.391 73.435,40.853 L78.489,42.056 C80.705,42.579 82.382,43.284 83.504,44.174 C85.254,45.541 86.131,47.528 86.131,50.119 C86.131,52.785 85.104,54.992 83.056,56.756 C81.005,58.512 78.116,59.391 74.379,59.391 C70.554,59.391 67.555,58.532 65.369,56.799 C63.174,55.067 62.082,52.68 62.082,49.643 L67.931,49.643 L67.931,49.643 Z" id="Path" fill="#1D1D1B"></path>
            <path d="M102.372,44.822 C102.267,44.018 101.998,43.301 101.569,42.653 C100.922,41.789 99.938,41.346 98.593,41.346 C96.687,41.346 95.372,42.292 94.679,44.174 C94.296,45.173 94.118,46.509 94.118,48.164 C94.118,49.74 94.296,51.019 94.679,51.98 C95.349,53.769 96.629,54.668 98.495,54.668 C99.819,54.668 100.752,54.318 101.325,53.606 C101.883,52.889 102.211,51.971 102.331,50.836 L108.121,50.836 C107.988,52.555 107.363,54.168 106.254,55.699 C104.471,58.158 101.846,59.39 98.357,59.39 C94.867,59.39 92.303,58.367 90.656,56.31 C89.002,54.253 88.194,51.583 88.194,48.308 C88.194,44.601 89.098,41.717 90.916,39.666 C92.728,37.611 95.234,36.588 98.438,36.588 C101.155,36.588 103.375,37.197 105.099,38.409 C106.841,39.614 107.863,41.758 108.187,44.821 L102.372,44.821 L102.372,44.822 Z" id="Path" fill="#1D1D1B"></path>
            <path d="M126.447,37.239 C127.553,37.704 128.455,38.41 129.159,39.353 C129.749,40.163 130.117,40.985 130.256,41.837 C130.389,42.685 130.454,44.07 130.454,45.985 L130.454,58.636 L124.66,58.636 L124.66,45.536 C124.66,44.383 124.464,43.448 124.068,42.731 C123.547,41.731 122.57,41.23 121.115,41.23 C119.622,41.23 118.484,41.731 117.695,42.731 C116.924,43.713 116.54,45.134 116.54,46.981 L116.54,58.637 L110.894,58.637 L110.894,29.611 L116.54,29.611 L116.54,39.895 C117.371,38.657 118.318,37.781 119.392,37.29 C120.476,36.788 121.621,36.545 122.81,36.545 C124.149,36.545 125.363,36.774 126.447,37.239 L126.447,37.239 Z" id="Path" fill="#1D1D1B"></path>
            <polygon id="Path" fill="#1D1D1B" points="140.749 58.637 135.068 58.637 135.068 29.511 140.749 29.511"></polygon>
            <path d="M168.144,41.305 L168.144,37.29 L171.166,37.29 L171.166,31.279 L176.781,31.279 L176.781,37.29 L180.3,37.29 L180.3,41.305 L176.781,41.305 L176.781,52.696 C176.781,53.579 176.885,54.126 177.118,54.344 C177.337,54.563 178.031,54.668 179.182,54.668 C179.359,54.668 179.537,54.668 179.725,54.668 C179.924,54.658 180.118,54.645 180.299,54.627 L180.299,58.836 L177.618,58.941 C174.93,59.027 173.103,58.564 172.122,57.552 C171.481,56.907 171.165,55.915 171.165,54.57 L171.165,41.305 L168.144,41.305 L168.144,41.305 Z" id="Path" fill="#1D1D1B"></path>
            <path d="M219.445,36.604 C219.528,36.604 219.69,36.616 219.942,36.618 L219.942,42.403 C219.59,42.355 219.274,42.331 218.985,42.312 C218.715,42.307 218.487,42.293 218.313,42.293 C216.036,42.293 214.497,43.039 213.715,44.509 C213.288,45.344 213.058,46.619 213.058,48.344 L213.058,58.637 L207.359,58.637 L207.359,37.097 L212.764,37.097 L212.764,40.853 C213.64,39.421 214.402,38.439 215.049,37.91 C216.11,37.026 217.491,36.589 219.191,36.589 C219.293,36.589 219.376,36.589 219.445,36.604 L219.445,36.604 Z" id="Path" fill="#1D1D1B"></path>
        </g>
    </g>
</svg>