<?xml version="1.0" encoding="utf-8"?>
<!-- Generator: Adobe Illustrator 23.0.6, SVG Export Plug-In . SVG Version: 6.00 Build 0)  -->
<svg version="1.1" id="Layer_1" xmlns="http://www.w3.org/2000/svg" xmlns:xlink="http://www.w3.org/1999/xlink" x="0px" y="0px"
	 viewBox="0 0 644.1 166.7" style="enable-background:new 0 0 644.1 166.7;" xml:space="preserve">
<style type="text/css">
	.st0{fill:#4BB262;}
	.st1{fill:#3D3D3D;}
	.st2{fill:#C9E6D0;}
</style>
<g>
	<path class="st0" d="M222.9,20.1c0.4-0.9,1.2-1.5,2.2-1.5h8.5c0.7,0,1.2,0.7,0.9,1.5l-29.9,72.8c-0.3,0.9-1.1,1.4-2,1.4
		c-0.9,0-1.7-0.5-2.1-1.4l-29.8-72.8c-0.3-0.8,0.2-1.5,0.9-1.5h8.5c0.9,0,1.8,0.6,2.2,1.5l20.3,52.5L222.9,20.1z"/>
	<path class="st0" d="M287,73.8h-26.6l-7,18.2c-0.4,1-1.2,1.5-2.2,1.5h-8.5c-0.7,0-1.2-0.7-0.9-1.5l29.8-72.8
		c0.4-0.9,1.1-1.4,2.1-1.4c0.8,0,1.7,0.5,2,1.4l29.9,72.8c0.3,0.7-0.2,1.5-0.9,1.5h-8.5c-0.9,0-1.8-0.5-2.2-1.5L287,73.8z
		 M264.1,64.3h19.2l-9.6-24.8L264.1,64.3z"/>
	<path class="st0" d="M366.5,73.8h-26.6l-7,18.2c-0.4,1-1.2,1.5-2.2,1.5h-8.5c-0.7,0-1.2-0.7-0.9-1.5l29.8-72.8
		c0.4-0.9,1.1-1.4,2.1-1.4c0.8,0,1.7,0.5,2,1.4l29.9,72.8c0.3,0.7-0.2,1.5-0.9,1.5h-8.5c-0.9,0-1.8-0.5-2.2-1.5L366.5,73.8z
		 M343.6,64.3h19.2l-9.6-24.8L343.6,64.3z"/>
	<path class="st0" d="M434.5,66.9c-0.8,0-1.5-0.8-1.5-1.6v-6.4c0-0.9,0.7-1.6,1.5-1.6h22.7c0.8,0,1.5,0.7,1.5,1.6v23.7
		c0,1.1-0.4,2-1.1,2.7c-6.1,5.8-13.9,9.4-24.8,9.4c-27.6,0-35.7-22.5-35.7-38.6c0-15.7,8.2-38.5,35.7-38.5c11.5,0,18.1,3.1,24.1,9.4
		c0.6,0.6,0.5,1.7,0,2.4l-4.5,4.7c-0.5,0.6-1.5,0.6-2.2,0.1c-3.8-3.6-10.4-6.9-17.3-6.9c-21.8,0-25,21.5-25,28.7
		c0,7.2,3.2,28.6,25,28.6c5.8,0,11.3-1.7,15.3-4.8v-13H434.5z"/>
	<path class="st0" d="M496.1,61.5V84h35.4c0.8,0,1.5,0.8,1.5,1.6v6.4c0,0.9-0.7,1.6-1.5,1.6h-44.4c-0.8,0-1.5-0.7-1.5-1.6V20.2
		c0-0.9,0.7-1.6,1.5-1.6h44.4c0.8,0,1.5,0.7,1.5,1.6v6.4c0,0.9-0.7,1.6-1.5,1.6h-35.4v23.6h35.4c0.8,0,1.5,0.8,1.5,1.6v6.4
		c0,0.9-0.7,1.6-1.5,1.6H496.1z"/>
	<path class="st0" d="M607.8,20.2c0-0.9,0.7-1.6,1.5-1.6h7.5c0.8,0,1.5,0.7,1.5,1.6v73c0,0.5-0.4,1-0.9,1c-0.6,0-1.1-0.2-1.5-0.8
		L570.6,43l-0.1,49.1c0,0.9-0.7,1.6-1.5,1.6h-7.5c-0.8,0-1.5-0.7-1.5-1.6V19c0-0.6,0.4-1.1,0.9-1.1c0.6,0,1.2,0.3,1.7,0.7l45.3,50.2
		V20.2z"/>
</g>
<g>
	<path class="st1" d="M268,119h-8.8c-0.4,0-0.7-0.3-0.7-0.7v-2.9c0-0.4,0.3-0.7,0.7-0.7h22.5c0.4,0,0.7,0.3,0.7,0.7v2.9
		c0,0.4-0.3,0.7-0.7,0.7h-8.9v28.9c0,0.4-0.3,0.7-0.7,0.7h-3.4c-0.4,0-0.7-0.3-0.7-0.7V119z"/>
	<path class="st1" d="M308.6,147.9c0,0.4-0.3,0.7-0.7,0.7h-3.4c-0.4,0-0.7-0.3-0.7-0.7v-32.5c0-0.4,0.3-0.7,0.7-0.7h3.4
		c0.4,0,0.7,0.3,0.7,0.7V147.9z"/>
	<path class="st1" d="M340.1,126.4l-6.8,21.6c-0.1,0.4-0.5,0.7-0.9,0.7h-3.8c-0.3,0-0.6-0.3-0.5-0.7l10.7-33.2
		c0.1-0.3,0.3-0.5,0.6-0.5c0.3,0,0.6,0.2,0.7,0.5l10,24.3l10-24.3c0.1-0.3,0.4-0.5,0.7-0.5c0.3,0,0.6,0.2,0.7,0.5l10.7,33.2
		c0.1,0.3-0.1,0.7-0.5,0.7h-3.8c-0.4,0-0.8-0.3-0.9-0.7l-6.8-21.6l-9.2,22.1c-0.1,0.3-0.5,0.6-0.8,0.6c-0.4,0-0.7-0.2-0.8-0.6
		L340.1,126.4z"/>
	<path class="st1" d="M411.4,139.1c0,4-2.6,9.6-11.4,9.6h-11.4c-0.4,0-0.7-0.3-0.7-0.7v-32.5c0-0.4,0.3-0.7,0.7-0.7H400
		c8.7,0,11.4,5.6,11.4,9.7c0,2.6-1.2,5.6-4,7.3C410.1,133.1,411.4,136.8,411.4,139.1z M406.5,124.3c0-1.3-0.8-5.3-6-5.3h-7.9v10.7h8
		C405.7,129.6,406.5,126,406.5,124.3z M406.5,139.1c0-1.9-0.8-4.9-5.8-5h-8v10.2h7.9C405.7,144.3,406.5,140.4,406.5,139.1z"/>
	<path class="st1" d="M434,134.1v10.2h16c0.4,0,0.7,0.3,0.7,0.7v2.9c0,0.4-0.3,0.7-0.7,0.7h-20.1c-0.4,0-0.7-0.3-0.7-0.7v-32.5
		c0-0.4,0.3-0.7,0.7-0.7H450c0.4,0,0.7,0.3,0.7,0.7v2.9c0,0.4-0.3,0.7-0.7,0.7h-16v10.7h12.4c0.4,0,0.7,0.3,0.7,0.7v2.9
		c0,0.4-0.3,0.7-0.7,0.7H434z"/>
	<path class="st1" d="M473.3,147.9c0,0.4-0.3,0.7-0.7,0.7h-3.3c-0.4,0-0.7-0.3-0.7-0.7v-32.5c0-0.4,0.3-0.7,0.7-0.7h11.4
		c8.7,0,11.4,6.3,11.4,10.6c0,5.1-3.4,8.7-7.3,10.1l5.7,12.5c0.1,0.3-0.1,0.7-0.4,0.7h-3.7c-0.4,0-0.8-0.2-1-0.7l-5.4-11.9h-6.6
		V147.9z M487.2,125.3c0-2.2-1.1-6.3-6.3-6.3h-7.6v12.6h7.8C486.1,131.5,487.2,127.3,487.2,125.3z"/>
	<path class="st1" d="M530.5,139.8c0,5.2-5,9.2-11.6,9.2c-4.6,0-7.9-0.9-11.3-2.7c-0.3-0.2-0.5-0.6-0.3-1l1.2-2.6
		c0.2-0.4,0.6-0.5,1-0.4c2.7,1.3,5.7,2.2,9,2.2c3.6,0,7-1.9,7-4.9c0-9.2-18.2-4.1-18.2-16.3c0-5.9,4.3-9.4,10.2-9.4
		c1.8,0,6,0.3,10.6,2.4c0.4,0.1,0.5,0.6,0.4,1l-1.2,2.8c-0.1,0.4-0.6,0.6-0.9,0.4c-2.3-0.9-5.8-1.9-7.7-1.9c-3.5,0-6.2,0.7-6.5,4.3
		C512.2,130.9,530.5,126.5,530.5,139.8z"/>
</g>
<g>
	<path class="st0" d="M19,95.3V109c0,0,53.5,38.4,55.8,40v-13.8C72.5,133.6,19,95.3,19,95.3z"/>
	<path class="st0" d="M19,78.5v13.8c0,0,9.5,6.8,15.8,11.3V89.8C28.4,85.2,19,78.5,19,78.5z"/>
	<path class="st0" d="M37.1,91.5v13.8c7.4,5.3,8.9,6.4,17,12.2v-13.8C46,97.9,44.5,96.8,37.1,91.5z"/>
	<path class="st0" d="M56.5,105.3v13.8c8.3,5.9,17.6,12.6,18.3,13.2v-13.8C74,118,64.7,111.3,56.5,105.3z"/>
	<path class="st0" d="M19,61.7v13.8c0,0,53.5,38.4,55.8,40v-13.8C72.5,100.1,19,61.7,19,61.7z"/>
	<polygon class="st2" points="133.1,109 133.1,95.3 77.2,135.3 77.2,149.1 	"/>
	<polygon class="st2" points="133.1,92.2 133.1,78.5 77.2,118.5 77.2,132.3 	"/>
	<polygon class="st2" points="77.2,115.5 133.1,75.4 133.1,61.7 77.2,101.7 	"/>
	<path class="st1" d="M76,89.5c0,0-35.1-25.2-48-34.4l-7,5C25,63,76,99.6,76,99.6l54.9-39.4c-1.5-1.1-4.5-3.2-7-5L76,89.5z"/>
	<path class="st1" d="M76,72.1c0,0-19.1-13.7-35.8-25.7l-7,5C49.3,62.9,76,82.1,76,82.1l42.8-30.7c-3-2.2-3.6-2.6-7-5L76,72.1z"/>
	<path class="st1" d="M106.6,42.7c-3.5-2.5-3.7-2.6-7-5L76,54.7c-0.1-0.1-12.6-9-23.7-17l-7,5c15.2,10.9,30.6,22,30.6,22L106.6,42.7
		z"/>
	<path class="st1" d="M94.5,34c-2.9-2.1-4.9-3.5-7-5L76,37.2c0,0-7.8-5.6-11.5-8.2l-7,5C65.6,39.8,76,47.2,76,47.2L94.5,34z"/>
	<path class="st1" d="M82.3,25.3c-1.1-0.8-6.3-4.5-6.3-4.5l-6.3,4.5c1.2,0.9,6.3,4.5,6.3,4.5L82.3,25.3z"/>
</g>
</svg>
