<svg version="1.2" xmlns="http://www.w3.org/2000/svg" viewBox="0 0 1600 1600" width="1600" height="1600">
	<title>zehhhnder-svg</title>
	<style>
		.s0 { fill: #e2001a } 
		.s1 { fill: #ffffff } 
	</style>
	<path id="Layer" class="s0" d="m0 0h1600v1600h-1600z"/>
	<path id="Layer" class="s1" d="m278.2 1316.1v-41.7l71.4-69.8h-65.4v-46.1h141.2v43.1l-68.4 68.4h71.4v46.1z"/>
	<path id="Layer" fill-rule="evenodd" class="s1" d="m508.7 1250.7c0 17.8 14.8 31.2 31.2 31.2 10.4 0 19.3-4.5 23.8-13.4h59.4c-10.4 38.6-50.5 52-86.2 52-50.5 0-89.2-28.2-89.2-81.7 0-52.1 38.7-84.8 89.2-84.8 58 0 93.7 40.2 92.2 96.7zm56.5-31.3c0-14.8-13.4-26.7-26.8-26.7-17.8 0-29.7 10.4-29.7 26.7z"/>
	<path id="Layer" class="s1" d="m642.5 1100.5l62.4-7.4 8.9 77.3c10.4-17.9 23.8-26.8 44.6-29.8 41.7-4.4 62.5 17.9 68.4 61l10.4 93.7-62.4 7.4-8.9-81.8c-1.5-14.8-7.5-28.2-25.3-26.7-19.3 1.4-22.3 14.8-20.8 34.2l8.9 78.7-62.4 7.5z"/>
	<path id="Layer" class="s1" d="m829.8 1140.6l50.5-26.7 11.9 20.8c3-23.8 11.9-40.1 32.7-50.6 35.7-19.3 65.5-7.4 86.3 29.8l44.6 81.7-55 29.8-40.2-71.4c-7.4-13.4-17.8-23.8-32.7-14.8-16.3 8.9-14.9 22.3-5.9 40.1l38.6 69.9-55 29.7z"/>
	<path id="Layer" fill-rule="evenodd" class="s1" d="m1182.1 1078.2l-16.3-13.4c4.4 23.8 0 37.2-13.4 53.5-31.2 35.7-74.3 29.8-107 0-38.7-34.2-44.6-78.8-20.9-107 13.4-14.9 25.3-22.3 46.1-20.8l-56.5-49.1 41.7-46.1 160.5 142.8zm-59.4-47.6c-13.4-11.9-31.3-19.3-44.6-4.5-13.4 14.9-3 32.7 10.4 44.6 11.9 10.4 29.7 20.8 43.1 6 13.4-17.9 4.4-34.2-8.9-46.1z"/>
	<path id="Layer" fill-rule="evenodd" class="s1" d="m1219.3 914.7c17.8 7.4 34.2-1.5 40.1-17.9 3-8.9 3-19.3-4.4-26.7l22.3-55c32.7 23.7 29.7 65.4 16.3 99.6-17.8 46-59.4 72.8-108.5 53.5-47.6-19.3-63.9-66.9-46.1-113 20.8-53.5 71.4-71.4 123.4-50.6zm-8.9-65.4c-13.4-5.9-29.7 1.5-35.7 16.4-7.4 17.8-1.5 31.2 14.9 37.2z"/>
	<path id="Layer" class="s1" d="m1177.7 774.9v-56.5h31.2c-23.8-8.9-35.7-23.8-35.7-47.6 0-2.9 0-5.9 1.5-7.4h62.4c0 4.5-1.4 8.9-1.4 13.4 0 25.3 11.8 38.6 46 38.6h52.1v62.5h-156.1"/>
</svg>